<svg xmlns="http://www.w3.org/2000/svg" width="194" height="116" viewBox="0 0 194 116">
    <defs>
        <filter id="a" width="153%" height="154%" x="-26.5%" y="-27%" filterUnits="objectBoundingBox">
            <feOffset dx="-8" dy="12" in="SourceAlpha" result="shadowOffsetOuter1"/>
            <feGaussianBlur in="shadowOffsetOuter1" result="shadowBlurOuter1" stdDeviation="9"/>
            <feColorMatrix in="shadowBlurOuter1" result="shadowMatrixOuter1" values="0 0 0 0 0.0980392157 0 0 0 0 0.164705882 0 0 0 0 0.274509804 0 0 0 0.12 0"/>
            <feMerge>
                <feMergeNode in="shadowMatrixOuter1"/>
                <feMergeNode in="SourceGraphic"/>
            </feMerge>
        </filter>
    </defs>
    <g fill="none" fill-rule="evenodd" filter="url(#a)" transform="translate(26 6)">
        <rect width="157" height="79" x=".5" y=".5" fill="#22AC60" stroke="#979797" rx="10"/>
        <path fill="#0E4B2A" fill-opacity=".729" d="M126.233 15.833c0 8.465 6.663 15.378 15.047 15.812v16.71c-8.384.434-15.047 7.347-15.047 15.812 0 .28.007.557.021.834H31.746c.014-.277.021-.555.021-.834 0-8.465-6.664-15.379-15.047-15.812v-16.71c8.383-.433 15.047-7.347 15.047-15.812 0-.28-.007-.557-.021-.833h94.508a16.04 16.04 0 0 0-.021.833z"/>
        <ellipse cx="79" cy="39.583" fill="#22AC60" rx="22.153" ry="22.083"/>
        <text fill="#136437" font-family="OpenSans-Semibold, Open Sans" font-size="34" font-weight="500">
            <tspan x="68.878" y="52.167">$</tspan>
        </text>
    </g>
</svg>
