<svg xmlns="http://www.w3.org/2000/svg" xmlns:xlink="http://www.w3.org/1999/xlink" width="162" height="46" viewBox="0 0 162 46">
    <defs>
        <filter id="a" width="126.7%" height="113.6%" x="-13.3%" y="-6.8%" filterUnits="objectBoundingBox">
            <feOffset dx="-1" dy="1" in="SourceAlpha" result="shadowOffsetOuter1"/>
            <feGaussianBlur in="shadowOffsetOuter1" result="shadowBlurOuter1" stdDeviation=".5"/>
            <feColorMatrix in="shadowBlurOuter1" result="shadowMatrixOuter1" values="0 0 0 0 0.0980392157 0 0 0 0 0.164705882 0 0 0 0 0.274509804 0 0 0 0.12 0"/>
            <feMerge>
                <feMergeNode in="shadowMatrixOuter1"/>
                <feMergeNode in="SourceGraphic"/>
            </feMerge>
        </filter>
        <linearGradient id="c" x1="32.651%" x2="66.316%" y1="97.275%" y2="16.253%">
            <stop offset="0%" stop-color="#E4DEF8"/>
            <stop offset="100%" stop-color="#E793F7"/>
            <stop offset="100%" stop-color="#E994F7"/>
        </linearGradient>
        <path id="b" d="M12.887 8.597L1.851 29.568a2.4 2.4 0 0 0 2.124 3.518h5.753c1.16 0 2.1.94 2.1 2.1v13.296a2.4 2.4 0 0 0 4.518 1.13l11.291-21.168a2.4 2.4 0 0 0-2.117-3.53H19.51a2.1 2.1 0 0 1-2.1-2.1v-13.1a2.4 2.4 0 0 0-4.524-1.117z"/>
        <linearGradient id="d" x1="30.722%" x2="82.49%" y1="0%" y2="135.287%">
            <stop offset="0%" stop-color="#ECECEC"/>
            <stop offset="100%" stop-color="#E994F7"/>
        </linearGradient>
        <linearGradient id="f" x1="37.513%" x2="76.581%" y1="118.863%" y2="-5.746%">
            <stop offset="0%" stop-color="#EAF3F2"/>
            <stop offset="100%" stop-color="#E994F7"/>
        </linearGradient>
    </defs>
    <g fill="none" fill-rule="evenodd">
        <g filter="url(#a)" transform="translate(1 -7)">
            <mask id="e" fill="#fff">
                <use xlink:href="#b"/>
            </mask>
            <use fill="url(#c)" xlink:href="#b"/>
            <ellipse cx="8.34" cy="13.41" fill="url(#d)" mask="url(#e)" rx="21.18" ry="34.11"/>
            <ellipse cx="6.24" cy="5.91" fill="url(#f)" mask="url(#e)" rx="13.62" ry="23.07"/>
        </g>
        <path fill="#FFF" fill-rule="nonzero" d="M43.516 21.884A5.395 5.395 0 0 0 39.7 20.3a1.844 1.844 0 0 1-1.836-1.836c0-1.008.828-1.836 1.836-1.836.864 0 1.476.396 1.692.972.316.878 1.112 1.516 2.053 1.346l.071-.014c.972-.18 1.548-1.152 1.368-2.124-.36-2.016-2.664-3.744-5.184-3.744a5.393 5.393 0 0 0-5.4 5.4c0 1.44.54 2.808 1.584 3.816a5.395 5.395 0 0 0 3.685 1.582l.131.002c1.008 0 1.836.828 1.836 1.836 0 1.044-.828 1.872-1.836 1.872l-.144-.002c-.77-.017-1.18-.195-1.656-1.078-.468-.9-1.152-1.584-2.124-1.404-.936.216-1.692 1.188-1.368 2.124.684 2.088 2.736 3.924 5.292 3.924 2.988 0 5.4-2.448 5.4-5.436 0-1.44-.54-2.772-1.584-3.816zm15.744 9.36a9.019 9.019 0 0 0 9.036-9.036c0-4.968-4.032-9.036-9.036-9.036-4.918 0-8.955 3.987-9.035 8.887l-.001.185v16.128c0 .972.792 1.764 1.8 1.764.972 0 1.764-.792 1.764-1.764v-8.964a9.02 9.02 0 0 0 5.472 1.836zm0-14.508c3.024 0 5.472 2.484 5.472 5.472a5.47 5.47 0 0 1-5.472 5.472c-2.99 0-5.418-2.394-5.471-5.337l-.001-.135a5.47 5.47 0 0 1 5.472-5.472zm23.16-3.708a9.019 9.019 0 0 0-9.036 9.036c0 4.918 3.952 8.955 8.886 9.035l.449.001c1.303-.003 3.042-.08 5.245-1.548.828-.54 1.296-1.476.864-2.376-.422-.845-1.499-1.345-2.32-.862l-.056.034c-1.728 1.116-3.204 1.188-4.032 1.188-2.412 0-4.428-1.548-5.184-3.708h12.42c1.008 0 1.8-.792 1.8-1.764 0-5.868-4.68-9.036-9.036-9.036zm0 3.564c2.16 0 4.464 1.152 5.22 3.672H77.236c.756-2.124 2.772-3.672 5.184-3.672zm23.232-3.564c-4.968 0-9.036 4.032-9.036 9.036V29.3c0 1.008.792 1.8 1.764 1.8 1.008 0 1.8-.792 1.8-1.8v-7.236a5.47 5.47 0 0 1 5.472-5.472 5.47 5.47 0 0 1 5.472 5.472V29.3c0 1.008.792 1.8 1.764 1.8 1.008 0 1.8-.792 1.8-1.8v-7.236c0-5.004-4.068-9.036-9.036-9.036zm23.232-.072a9.019 9.019 0 0 0-9.036 9.036c0 4.968 4.032 9.036 9.036 9.036 4.918 0 8.955-3.987 9.035-8.887l.001-.185V5.828c0-.972-.792-1.764-1.8-1.764-.972 0-1.764.792-1.764 1.764v8.964a9.02 9.02 0 0 0-5.472-1.836zm0 14.508c-3.024 0-5.472-2.484-5.472-5.472a5.47 5.47 0 0 1 5.472-5.472c2.99 0 5.418 2.394 5.471 5.337l.001.135a5.47 5.47 0 0 1-5.472 5.472zm23.124 3.636c5.004 0 9.036-4.068 9.036-9.036a9.019 9.019 0 0 0-9.036-9.036c-4.968 0-9.036 4.032-9.036 9.036 0 4.968 4.068 9.036 9.036 9.036zm0-14.508a5.47 5.47 0 0 1 5.472 5.472c0 2.988-2.448 5.472-5.472 5.472-3.024 0-5.472-2.484-5.472-5.472a5.47 5.47 0 0 1 5.472-5.472z"/>
    </g>
</svg>
